<svg xmlns="http://www.w3.org/2000/svg" viewBox="0 0 280 250">
  <defs>
    <linearGradient id="ring" x1="0" y1="1" x2="1" y2="0">
      <stop offset="0%" stop-color="#0057D9"/>
      <stop offset="42%" stop-color="#007BFF"/>
      <stop offset="70%" stop-color="#32CD32"/>
      <stop offset="100%" stop-color="#ADFF2F"/>
    </linearGradient>
    <linearGradient id="t" x1="0.2" y1="0" x2="0.8" y2="1">
      <stop offset="0%" stop-color="#7DD3FF"/>
      <stop offset="40%" stop-color="#00D4FF"/>
      <stop offset="100%" stop-color="#0057D9"/>
    </linearGradient>
    <linearGradient id="two" x1="0" y1="0" x2="0.3" y2="1">
      <stop offset="0%" stop-color="#FFFFFF"/>
      <stop offset="35%" stop-color="#F8FAFC"/>
      <stop offset="68%" stop-color="#94A3B8"/>
      <stop offset="100%" stop-color="#E2E8F0"/>
    </linearGradient>
    <linearGradient id="s" x1="0.2" y1="0" x2="0.8" y2="1">
      <stop offset="0%" stop-color="#F7FF9A"/>
      <stop offset="38%" stop-color="#ADFF2F"/>
      <stop offset="100%" stop-color="#15803D"/>
    </linearGradient>
    <filter id="shadow" x="-20%" y="-20%" width="140%" height="140%">
      <feDropShadow dx="2" dy="5" stdDeviation="2.4" flood-color="#000000" flood-opacity="0.4"/>
    </filter>
  </defs>
  <path d="M 104 227 A 100 100 0 1 1 180 43" fill="none" stroke="url(#ring)" stroke-width="14" stroke-linecap="round"/>
  <path d="M176 48 L232 10" stroke="#ADFF2F" stroke-width="14" stroke-linecap="round"/>
  <polygon points="214,2 252,6 228,38" fill="#ADFF2F"/>
  <polygon points="218,8 244,12 228,30" fill="#32CD32"/>
  <g fill="#32CD32">
    <line x1="90" y1="44" x2="90" y2="80" stroke="#32CD32" stroke-width="2.4"/>
    <rect x="83" y="54" width="14" height="20" rx="1.5"/>
    <line x1="112" y1="36" x2="112" y2="80" stroke="#32CD32" stroke-width="2.4"/>
    <rect x="104" y="46" width="16" height="28" rx="1.5"/>
    <line x1="136" y1="28" x2="136" y2="80" stroke="#32CD32" stroke-width="2.4"/>
    <rect x="128" y="36" width="16" height="38" rx="1.5"/>
    <line x1="160" y1="22" x2="160" y2="80" stroke="#32CD32" stroke-width="2.4"/>
    <rect x="152" y="30" width="16" height="44" rx="1.5"/>
  </g>
  <g filter="url(#shadow)" font-family="Inter, Arial Black, sans-serif" font-style="italic" font-weight="800">
    <text x="42" y="172" font-size="98" fill="#003A99" opacity="0.35">T</text>
    <text x="40" y="168" font-size="98" fill="url(#t)">T</text>
    <text x="124" y="168" font-size="66" fill="#64748B" opacity="0.4">2</text>
    <text x="122" y="164" font-size="66" fill="url(#two)">2</text>
    <text x="166" y="172" font-size="98" fill="#166534" opacity="0.35">S</text>
    <text x="164" y="168" font-size="98" fill="url(#s)">S</text>
  </g>
</svg>
